<?xml version="1.0" standalone="no"?><!DOCTYPE svg PUBLIC "-//W3C//DTD SVG 1.1//EN" "http://www.w3.org/Graphics/SVG/1.1/DTD/svg11.dtd"><svg t="1666855953937" class="icon" viewBox="0 0 1024 1024" version="1.1" xmlns="http://www.w3.org/2000/svg" p-id="5476" xmlns:xlink="http://www.w3.org/1999/xlink" width="200" height="200"><path d="M832.449855 461.351559l-177.423779-178.149604a327.696344 327.696344 0 0 0-435.494732-25.699565l-13.629372-13.683137a91.722718 91.722718 0 0 1-15.860611-108.685507L227.81112 64.594353A41.990295 41.990295 0 1 0 154.153369 24.64712L116.249198 95.186514A175.999013 175.999013 0 0 0 146.680065 303.551925l14.328314 14.382079a331.191055 331.191055 0 0 0 29.946983 431.489256l177.42378 178.149604A328.906052 328.906052 0 0 0 832.449855 461.351559z m-403.450922 60.915498a41.909647 41.909647 0 0 1-59.436966 0l-61.829499-62.205852a42.259118 42.259118 0 0 1 0-59.70579 41.829 41.829 0 0 1 59.436966 0l61.829499 62.205852a42.474178 42.474178 0 0 1 0 59.70579z m0 0" p-id="5477" fill="#f8f3f3"></path></svg>