<?xml version="1.0" standalone="no"?><!DOCTYPE svg PUBLIC "-//W3C//DTD SVG 1.1//EN" "http://www.w3.org/Graphics/SVG/1.1/DTD/svg11.dtd"><svg t="1667350854937" class="icon" viewBox="0 0 1024 1024" version="1.1" xmlns="http://www.w3.org/2000/svg" p-id="10588" xmlns:xlink="http://www.w3.org/1999/xlink" width="200" height="200"><path d="M512 163.84c-282.88 0-512 310.4-512 310.4s229.12 310.4 512 310.4 512-310.4 512-310.4-229.12-310.4-512-310.4z m0 620.16a309.76 309.76 0 1 1 309.76-309.76A309.76 309.76 0 0 1 512 784z" p-id="10589"></path><path d="M512 232.96a241.28 241.28 0 1 0 241.28 241.28A241.28 241.28 0 0 0 512 232.96z m0 304a64 64 0 1 1 64-64 64 64 0 0 1-64 64z" p-id="10590"></path></svg>