<?xml version="1.0" standalone="no"?><!DOCTYPE svg PUBLIC "-//W3C//DTD SVG 1.1//EN" "http://www.w3.org/Graphics/SVG/1.1/DTD/svg11.dtd"><svg t="1667303628825" class="icon" viewBox="0 0 1024 1024" version="1.1" xmlns="http://www.w3.org/2000/svg" p-id="8678" xmlns:xlink="http://www.w3.org/1999/xlink" width="200" height="200"><path d="M673.043456 471.595c-26.540032 2.204-74.533888 28.677-99.943424 27.574-18.239488-0.792-35.308544-32.535-42.660864-54.067 18.302976 0.084 40.685568-6.481 47.435776-3.785 11.787264 4.709 32.679936 26.094 37.501952 31.096 4.822016 5.007 56.786944 3.957 41.786368-38.943-5.720064-16.36-5.820416-29.36-2.58048-38.763 8.48896 7.89 15.643648 16.238 15.643648 16.238l7.902208-20.408 42.34752 12.683-5.897216-17.589c6.506496 0.305 11.061248-1.486 11.959296-6.829l12.575744 5.669c0-14.128-8.406016-28.804-20.887552-39.687 8.213504-1.512 20.105216-4.221 22.511616-7.579 3.712-5.18 13.179904-25.219-10.544128-29.173 7.453696-4.973 13.698048-10.74 18.359296-15.654 4.862976 0.721 13.630464 0.833 16.29184-6.968 3.749888-10.986-5.482496-18.834-19.616768-23.02 0 0 51.762176-61.735 39.974912-71.152 0 0-18.751488-9.417-49.287168 24.59 0 0-13.39392-4.709-19.288064 0-5.892096 4.708-19.284992 17.265-25.713664 36.622l-31.072256-8.371c0 0 50.359296-57.026 50.359296-72.199 0-15.172-28.931072-24.589-60.53888 23.543 0 0-6.9632 0-9.107456-15.172-1.195008-8.465-7.894016-4.223-14.979072 10.718-24.409088-90.799-116.844544-97.651-116.844544-97.651l15.248384 57.91-48.626688 1.655c0 0 13.04576 54.594 7.964672 62.867-5.085184 8.268-94.862336 3.306-57.595904 13.23 2.364416 0.634 4.666368 1.352 6.905856 2.142 33.06496 11.652 52.380672 39.218 52.380672 39.218 27.109376 62.854-94.86336 87.673-188.034048 94.295-93.167616 6.613-81.306624 57.896-81.306624 57.896l22.020096-1.656 11.85792 26.47 15.24736-21.512 22.023168 21.512c6.771712-18.201 37.267456-41.36 37.267456-41.36 6.776832 16.542 40.656896 54.59 40.656896 54.59 8.467456 87.673 81.31072 129.033 81.31072 129.033-22.023168 13.23-22.023168 79.408-22.023168 79.408-81.043456 42.431-44.043264 87.674-44.043264 87.674-3.390464-8.266 5.085184-46.313 18.599936-23.154 13.523968 23.154 22.057984 13.235 22.057984 13.235 15.24736-33.093 10.166272-14.896 35.576832-8.278 25.40544 6.613 12.358656-57.896 12.358656-57.896-2.879488-26.47 48.626688-87.682 82.50368-43.012 33.881088 44.667 0 107.525-98.2528 153.853-98.2528 46.313-28.8 74.437-28.8 74.437-72.839168 99.258 33.88416 43.012 33.88416 43.012 16.943104 71.136 67.757056-31.431 67.757056-31.431 38.964224 62.854 66.06848-51.284 66.06848-51.284 44.043264 24.81 33.881088-82.711 33.881088-82.711 52.514816-29.781 55.90016-130.694 47.429632-180.316-8.467456-49.634 14.687232-63.976 14.687232-63.976l36.701184 19.856 0-33.083 32.750592 13.26-7.911424-40.285 24.846336-10.476C699.026432 392.743 673.043456 471.595 673.043456 471.595zM665.736192 317.046l-0.775168-0.277c11.102208-4.431 18.937856 0.3 23.349248 4.636-3.914752 2.605-7.172096 4.956-9.567232 6.418-3.634176-0.188-7.279616 0.008-10.891264 0.626C662.216704 326.844 657.477632 323.166 665.736192 317.046zM617.467904 304.08c11.802624 0.068 15.755264 5.631 16.960512 10.454-8.255488 6.446-20.660224 14.191-20.660224 2.512C613.768192 311.627 615.15776 307.387 617.467904 304.08z" p-id="8679" fill="#2c2c2c"></path></svg>