<?xml version="1.0" standalone="no"?><!DOCTYPE svg PUBLIC "-//W3C//DTD SVG 1.1//EN" "http://www.w3.org/Graphics/SVG/1.1/DTD/svg11.dtd"><svg t="1667303764261" class="icon" viewBox="0 0 1024 1024" version="1.1" xmlns="http://www.w3.org/2000/svg" p-id="16490" xmlns:xlink="http://www.w3.org/1999/xlink" width="200" height="200"><path d="M292.566824 434.359712c-16.067954 129.641639 145.45172 183.872774 142.616138 183.539177-72.876798-8.452509-196.811458-83.935668-185.360662-181.615361 14.243399-121.356952 133.095297-139.453099 138.152477-138.646734s-79.248925 6.455015-95.407953 136.722918z" p-id="16491" fill="#2c2c2c"></path><path d="M345.093131 438.121386c-10.767228 114.225531 113.489774 174.374446 109.510136 175.570691-3.977591 1.199315-165.965939-51.640124-152.286382-178.849364 13.755282-127.770012 101.734032-132.132366 106.495476-129.772623 4.745071 2.355651-52.925397 18.394952-63.71923 133.051296z" p-id="16492" fill="#2c2c2c"></path><path d="M400.546094 438.968683c-11.851932 110.077048 71.160713 168.950923 68.194148 169.361269-2.952238 0.407276-125.665071-56.459896-113.824395-169.741939 11.883655-113.712855 72.443939-124.272351 77.558423-123.204019 5.126764 1.061169-20.004613 13.071713-31.928176 123.584689z" p-id="16493" fill="#2c2c2c"></path><path d="M456.929242 438.954357c-14.925944 110.960161 27.675316 167.896918 24.694425 168.023808-2.988054 0.130983-83.058694-58.404178-70.568219-167.96548 12.537548-109.982904 40.249703-119.852692 45.495171-119.314432 5.260817 0.531096 15.352663 7.812943 0.378623 119.256104z" p-id="16494" fill="#2c2c2c"></path><path d="M510.197446 438.216553c-1.882883 115.154693-12.793374 168.772868-15.555277 168.634722-2.798742-0.13917-40.450271-55.784514-27.519774-167.96241 12.992919-112.64657 8.731872-117.841895 14.72333-118.004601 5.652743-0.160659 30.238698 1.890047 28.351721 117.332289z" p-id="16495" fill="#2c2c2c"></path><path d="M563.11261 438.045661c7.739265 114.930589-52.772924 170.579003-55.716976 170.164564-2.916423-0.404206 11.614525-55.270814 12.409634-170.138981 0.793062-115.118877-18.311041-118.760824-12.741185-119.589702 5.536087-0.822738 48.299029 4.513804 56.048527 119.564119z" p-id="16496" fill="#2c2c2c"></path><path d="M616.870977 439.005522c8.975419 117.64849-94.182033 172.229596-97.058546 171.618683-2.876514-0.611937 62.396095-57.183374 53.034891-172.429141-9.386788-115.355261-46.855144-123.698277-41.296545-125.156488 5.536087-1.468444 76.363202 8.212032 85.3202 125.966946z" p-id="16497" fill="#2c2c2c"></path><path d="M677.559175 439.071014c1.686409 121.124661-134.337591 177.140443-139.380444 175.898149-5.053086-1.236154 97.618295-57.895595 89.732697-175.904289-7.899924-118.136607-73.687256-133.01548-66.067718-135.673006 7.623631-2.672876 114.032126 14.3181 115.715465 135.679146z" p-id="16498" fill="#2c2c2c"></path><path d="M738.799958 438.598246c-5.853311 127.609353-176.781262 182.455495-181.656293 181.176363-4.870938-1.276063 132.219347-58.597583 131.586944-180.743504-0.636496-122.429377-103.343693-143.815453-95.743598-146.484236 7.590885-2.675946 151.690818 18.023492 145.812947 146.051377z" p-id="16499" fill="#2c2c2c"></path><path d="M530.565333 286.606577c0.479931-1.494027 0.938372-3.006474 0.938371-4.652974 0-8.604982-6.971785-15.58086-15.570627-15.58086h-17.260105V54.568826h-5.972015v211.802894h-17.260106c-8.604982 0-15.57779 6.975878-15.57779 15.58086 0 1.6465 0.458441 3.158946 0.941442 4.652973-23.116487 2.196015-38.839587 6.488785-38.839587 11.436471 0 7.16826 33.008788 12.977569 73.712838 12.977569 40.72554 0 73.720002-5.809309 73.720002-12.977569 0.001023-4.946662-15.719007-9.239432-38.832423-11.435447z" p-id="16500" fill="#2c2c2c"></path><path d="M542.406009 631.853715c0-5.220908-24.043602-9.451256-53.69697-9.451256-29.656437 0-53.689806 4.231371-53.689806 9.451256 0 3.603061 11.444657 6.736425 28.290323 8.332783-0.356111 1.079588-0.693802 2.188852-0.693801 3.388166 0 6.263657 5.085832 11.346419 11.345395 11.34642h12.570294v54.768371c-7.514137 1.098008-13.373589 7.296173-13.373589 15.126512 0 7.81192 5.860475 14.010085 13.373589 15.108092v9.368369c-6.725168 1.089821-11.95631 6.66684-11.95631 13.70514v179.61582c0 7.80885 6.326079 14.145162 14.133905 14.145162 7.816013 0 14.145162-6.336312 14.145162-14.145162V762.996544c0-7.04137-5.231141-12.625552-11.971659-13.70514v-9.368368c7.521301-1.089821 13.385868-7.29208 13.385868-15.108093 0-7.830339-5.863545-14.028505-13.385868-15.130605V654.919037h12.567223c6.26775 0 11.346419-5.082762 11.346419-11.346419 0-1.199315-0.331551-2.308579-0.687662-3.388167 16.84976-1.594311 28.297486-4.727675 28.297487-8.330736z" p-id="16501" fill="#2c2c2c"></path></svg>