<?xml version="1.0" standalone="no"?><!DOCTYPE svg PUBLIC "-//W3C//DTD SVG 1.1//EN" "http://www.w3.org/Graphics/SVG/1.1/DTD/svg11.dtd"><svg t="1667303904951" class="icon" viewBox="0 0 1024 1024" version="1.1" xmlns="http://www.w3.org/2000/svg" p-id="19692" xmlns:xlink="http://www.w3.org/1999/xlink" width="200" height="200"><path d="M 898.133 546.133 c 6.4 -8.53333 6.4 -21.3333 0 -27.7333 c -117.333 -125.867 -243.2 -187.733 -375.467 -185.6 c -217.6 4.26667 -369.067 179.2 -375.467 185.6 c -6.4 8.53333 -6.4 21.3333 0 27.7333 c 115.2 123.733 238.933 185.6 369.067 185.6 h 8.53333 c 213.333 -4.26667 366.933 -179.2 373.333 -185.6 Z m -416 -2.13333 v 29.8667 c -8.53333 -6.4 -17.0667 -17.0667 -19.2 -29.8667 h 19.2 Z m -12.8 -42.6667 c 4.26667 -4.26667 6.4 -8.53333 12.8 -12.8 v 12.8 H 469.333 Z m 55.4667 42.6667 h 32 c -4.26667 17.0667 -17.0667 29.8667 -32 36.2667 v -36.2667 Z m 0 -42.6667 v -19.2 c 10.6667 4.26667 19.2 10.6667 25.6 19.2 h -25.6 Z m -42.6667 -57.6 c -27.7333 8.53333 -49.0667 32 -59.7333 59.7333 h -23.4667 c 10.6667 -40.5333 42.6667 -72.5333 81.0667 -81.0667 v 21.3333 Z m -64 100.267 c 4.26667 36.2667 29.8667 66.1333 61.8667 76.8 v 23.4667 c -44.8 -10.6667 -78.9333 -51.2 -85.3333 -100.267 h 23.4667 Z m 106.667 81.0667 c 38.4 -6.4 70.4 -38.4 74.6667 -78.9333 h 19.2 c -4.26667 53.3333 -44.8 93.8667 -93.8667 102.4 v -23.4667 Z m 70.4 -123.733 c -10.6667 -32 -38.4 -57.6 -72.5333 -61.8667 v -21.3333 c 44.8 6.4 78.9333 40.5333 91.7333 83.2 h -19.2 Z M 469.333 379.733 c -64 17.0667 -110.933 72.5333 -117.333 140.8 v 10.6667 c 0 72.5333 49.0667 134.4 113.067 153.6 c -96 -12.8 -187.733 -64 -277.333 -153.6 c 38.4 -36.2667 145.067 -130.133 281.6 -151.467 Z m 72.5333 307.2 c 68.2667 -14.9333 121.6 -78.9333 121.6 -155.733 v -8.53333 v -2.13333 v -2.13333 c -6.4 -78.9333 -68.2667 -142.933 -145.067 -147.2 h 6.4 c 113.067 -2.13333 226.133 51.2 330.667 157.867 c -42.6667 40.5333 -160 147.2 -313.6 157.867 Z M 842.667 128 h -234.667 c -17.0667 0 -32 14.9333 -32 32 S 590.933 192 608 192 h 234.667 c 10.6667 0 21.3333 8.53333 21.3333 21.3333 v 236.8 c 0 17.0667 14.9333 32 32 32 s 32 -14.9333 32 -32 V 213.333 c -2.13333 -46.9333 -38.4 -85.3333 -85.3333 -85.3333 Z M 138.667 482.133 c 17.0667 0 32 -14.9333 32 -32 V 213.333 c 0 -10.6667 8.53333 -21.3333 21.3333 -21.3333 h 234.667 c 17.0667 0 32 -14.9333 32 -32 S 443.733 128 426.667 128 H 192 c -46.9333 0 -85.3333 38.4 -85.3333 85.3333 v 236.8 c 0 17.0667 14.9333 32 32 32 Z" fill="#2c2c2c" p-id="19693"></path><path d="M 893.867 573.867 c -17.0667 0 -32 14.9333 -32 32 v 236.8 c 0 10.6667 -8.53333 21.3333 -21.3333 21.3333 H 608 c -17.0667 0 -32 14.9333 -32 32 s 14.9333 32 32 32 h 232.533 c 46.9333 0 85.3333 -38.4 85.3333 -85.3333 V 605.867 c 0 -19.2 -12.8 -32 -32 -32 Z M 426.667 864 H 192 c -10.6667 0 -21.3333 -8.53333 -21.3333 -21.3333 V 605.867 c 0 -17.0667 -14.9333 -32 -32 -32 S 106.667 586.667 106.667 605.867 v 236.8 c 0 46.9333 38.4 85.3333 85.3333 85.3333 h 234.667 c 17.0667 0 32 -14.9333 32 -32 s -14.9333 -32 -32 -32 Z" fill="#2c2c2c" p-id="19694"></path></svg>