<?xml version="1.0" standalone="no"?><!DOCTYPE svg PUBLIC "-//W3C//DTD SVG 1.1//EN" "http://www.w3.org/Graphics/SVG/1.1/DTD/svg11.dtd"><svg t="1667303921180" class="icon" viewBox="0 0 1024 1024" version="1.1" xmlns="http://www.w3.org/2000/svg" p-id="20744" xmlns:xlink="http://www.w3.org/1999/xlink" width="200" height="200"><path d="M512 185.6c76.8 0 147.2 32 192 83.2 12.8 12.8 25.6 25.6 38.4 44.8h236.8c19.2 0 38.4 19.2 38.4 38.4s-19.2 38.4-38.4 38.4h-198.4c0 6.4 6.4 12.8 6.4 19.2h147.2c19.2 0 38.4 19.2 38.4 38.4s-19.2 38.4-38.4 38.4h-140.8v19.2h96c19.2 0 38.4 19.2 38.4 38.4s-19.2 38.4-38.4 38.4h-115.2c-12.8 25.6-32 51.2-51.2 76.8-51.2 51.2-121.6 83.2-192 83.2-76.8 0-147.2-32-192-83.2-38.4-25.6-57.6-51.2-70.4-83.2H147.2c-19.2 0-38.4-12.8-38.4-38.4 0-19.2 19.2-38.4 38.4-38.4h96v-19.2H96c-19.2 0-32-12.8-32-38.4 0-19.2 19.2-38.4 38.4-38.4h147.2c0-6.4 0-12.8 6.4-19.2H51.2c-25.6 0-38.4-12.8-38.4-38.4 0-19.2 19.2-38.4 38.4-38.4h236.8c6.4-12.8 19.2-25.6 32-44.8 51.2-44.8 121.6-76.8 192-76.8z m25.6 76.8L576 377.6h121.6c-12.8-25.6-25.6-44.8-44.8-64-25.6-25.6-70.4-44.8-115.2-51.2z m172.8 166.4L614.4 499.2l32 108.8 6.4-6.4c19.2-19.2 38.4-44.8 44.8-70.4 6.4-19.2 12.8-44.8 12.8-70.4 6.4-12.8 6.4-19.2 0-32zM601.6 640L512 576l-89.6 64c25.6 12.8 57.6 19.2 89.6 19.2 32 0 64-6.4 89.6-19.2z m-224-32l32-108.8-96-70.4v32c0 25.6 6.4 44.8 12.8 70.4 12.8 25.6 25.6 51.2 51.2 76.8z m-44.8-230.4h121.6L492.8 256c-51.2 12.8-89.6 32-121.6 64-12.8 12.8-32 38.4-38.4 57.6z m204.8 32L512 332.8l-25.6 76.8c0 6.4-12.8 12.8-19.2 12.8H384l64 44.8c6.4 6.4 12.8 19.2 6.4 25.6L435.2 576l64-44.8c6.4-6.4 19.2-6.4 25.6 0l64 51.2-19.2-83.2c0-6.4 0-19.2 6.4-25.6l64-51.2H563.2c-12.8 6.4-19.2 0-25.6-12.8z" fill="" p-id="20745"></path></svg>