<?xml version="1.0" standalone="no"?><!DOCTYPE svg PUBLIC "-//W3C//DTD SVG 1.1//EN" "http://www.w3.org/Graphics/SVG/1.1/DTD/svg11.dtd"><svg t="1667304275900" class="icon" viewBox="0 0 1032 1024" version="1.1" xmlns="http://www.w3.org/2000/svg" p-id="36194" xmlns:xlink="http://www.w3.org/1999/xlink" width="201.5625" height="200"><path d="M512.003514 1024c-69.073018 0-136.146818-13.494729-199.32214-40.284264C251.705193 957.92581 196.926591 921.040219 149.944943 874.058571 102.963296 827.076923 66.077704 772.298321 40.287778 711.32214 13.598204 648.146818 0.003514 581.073018 0.003514 512S13.598204 375.853182 40.287778 312.67786C66.077704 251.701679 102.963296 196.923077 149.944943 149.941429c46.981648-46.981648 101.76025-83.867239 162.736431-109.657165C375.856697 13.59469 442.930496 0 512.003514 0c88.865287 0 176.431082 23.190941 253.201094 66.873877 23.390863 13.294807 31.4877 43.083171 18.192893 66.374073-13.294807 23.390863-43.083171 31.4877-66.374073 18.192893-62.075752-35.286216-132.948067-54.078875-205.019914-54.078875C283.392815 97.361968 97.465443 283.389301 97.465443 512c0 228.610699 186.027333 414.638032 414.638032 414.638032S926.641546 740.610699 926.641546 512c0-67.17376-16.393596-133.947677-47.581413-192.924639-8.296759-15.793831-17.79305-31.287778-28.089028-45.882077-15.493948-21.99141-10.295978-52.379539 11.695432-67.873487 21.99141-15.493948 52.379539-10.295978 67.873486 11.695431 12.795002 18.092932 24.390472 37.085513 34.686451 56.677861 38.484967 72.971496 58.77704 155.339321 58.77704 238.306911 0 69.073018-13.494729 136.146818-40.284264 199.32214-25.789926 60.976181-62.675517 115.754783-109.657165 162.736431-46.981648 46.981648-101.76025 83.867239-162.736431 109.657165-63.175322 26.789535-130.14916 40.284264-199.32214 40.284264z" p-id="36195"></path><path d="M522.599375 563.979695c-27.489262 0-49.980476-22.491214-49.980476-49.980476v-265.896134c0-27.489262 22.491214-49.980476 49.980476-49.980477s49.980476 22.491214 49.980477 49.980477v265.896134c0 27.489262-22.491214 49.980476-49.980477 49.980476z" p-id="36196"></path><path d="M746.012105 737.411948c-19.392425 19.392425-51.279969 19.392425-70.672394 0L487.313159 549.385396c-19.392425-19.392425-19.392425-51.279969 0-70.672393 19.392425-19.392425 51.279969-19.392425 70.672394 0l188.026552 188.026552c19.392425 19.392425 19.392425 51.180008 0 70.672393z" p-id="36197"></path></svg>